<?xml version="1.0" encoding="UTF-8"?>
<svg version="1.1" xmlns="http://www.w3.org/2000/svg" width="64" height="64">
<path d="M0 0 C0.87173859 -0.00570007 1.74347717 -0.01140015 2.64163208 -0.01727295 C4.48584786 -0.02671683 6.33008047 -0.0332545 8.17431641 -0.03710938 C10.99020936 -0.04681433 13.80537209 -0.07784286 16.62109375 -0.109375 C18.41405817 -0.11590543 20.20702781 -0.12115575 22 -0.125 C23.25960037 -0.1435202 23.25960037 -0.1435202 24.54464722 -0.16241455 C30.25432114 -0.14074541 33.4748589 0.92487906 37.8828125 4.703125 C41.04172506 8.49382007 40.31249323 13.41562413 40.3359375 18.0703125 C40.34163757 18.94205109 40.34733765 19.81378967 40.35321045 20.71194458 C40.36265433 22.55616036 40.369192 24.40039297 40.37304688 26.24462891 C40.38275183 29.06052186 40.41378036 31.87568459 40.4453125 34.69140625 C40.45184293 36.48437067 40.45709325 38.27734031 40.4609375 40.0703125 C40.4732843 40.91004608 40.4856311 41.74977966 40.49835205 42.61495972 C40.47668291 48.32463364 39.41105844 51.5451714 35.6328125 55.953125 C31.84211743 59.11203756 26.92031337 58.38280573 22.265625 58.40625 C21.39388641 58.41195007 20.52214783 58.41765015 19.62399292 58.42352295 C17.77977714 58.43296683 15.93554453 58.4395045 14.09130859 58.44335938 C11.27541564 58.45306433 8.46025291 58.48409286 5.64453125 58.515625 C3.85156683 58.52215543 2.05859719 58.52740575 0.265625 58.53125 C-0.57410858 58.5435968 -1.41384216 58.5559436 -2.27902222 58.56866455 C-7.98869614 58.54699541 -11.2092339 57.48137094 -15.6171875 53.703125 C-18.77610006 49.91242993 -18.04686823 44.99062587 -18.0703125 40.3359375 C-18.07601257 39.46419891 -18.08171265 38.59246033 -18.08758545 37.69430542 C-18.09702933 35.85008964 -18.103567 34.00585703 -18.10742188 32.16162109 C-18.11712683 29.34572814 -18.14815536 26.53056541 -18.1796875 23.71484375 C-18.18621793 21.92187933 -18.19146825 20.12890969 -18.1953125 18.3359375 C-18.2076593 17.49620392 -18.2200061 16.65647034 -18.23272705 15.79129028 C-18.21105791 10.08161636 -17.14543344 6.8610786 -13.3671875 2.453125 C-9.57649243 -0.70578756 -4.65468837 0.02344427 0 0 Z M13.1328125 18.203125 C10.8228125 25.133125 8.5128125 32.063125 6.1328125 39.203125 C7.1228125 39.533125 8.1128125 39.863125 9.1328125 40.203125 C11.4428125 33.273125 13.7528125 26.343125 16.1328125 19.203125 C15.1428125 18.873125 14.1528125 18.543125 13.1328125 18.203125 Z M1.1328125 21.203125 C-1.1771875 23.513125 -3.4871875 25.823125 -5.8671875 28.203125 C-4.13403265 31.6694347 -3.55613979 32.75090147 -0.7421875 34.953125 C0.2065625 35.695625 1.1553125 36.438125 2.1328125 37.203125 C2.4701971 34.07814334 2.4701971 34.07814334 0.1328125 32.015625 C-0.5271875 31.4175 -1.1871875 30.819375 -1.8671875 30.203125 C-0.49564246 27.24902799 1.12144974 24.76304124 3.1328125 22.203125 C2.4728125 21.873125 1.8128125 21.543125 1.1328125 21.203125 Z M20.1328125 21.203125 C19.7954279 24.32810666 19.7954279 24.32810666 22.1328125 26.390625 C22.7928125 26.98875 23.4528125 27.586875 24.1328125 28.203125 C22.76126746 31.15722201 21.14417526 33.64320876 19.1328125 36.203125 C22.09132283 36.51959 22.09132283 36.51959 23.73828125 34.890625 C24.26035156 34.33375 24.78242187 33.776875 25.3203125 33.203125 C25.85011719 32.64625 26.37992188 32.089375 26.92578125 31.515625 C27.32410156 31.0825 27.72242188 30.649375 28.1328125 30.203125 C26.5497548 25.9288692 23.62712846 23.93780706 20.1328125 21.203125 Z " fill="#00D3FF" transform="translate(20.8671875,2.796875)"/>
</svg>
